<?xml version="1.0" encoding="UTF-8" standalone="no"?>
<!-- Generator: Adobe Illustrator 21.0.2, SVG Export Plug-In . SVG Version: 6.00 Build 0)  -->

<svg
   xmlns:dc="http://purl.org/dc/elements/1.1/"
   xmlns:cc="http://creativecommons.org/ns#"
   xmlns:rdf="http://www.w3.org/1999/02/22-rdf-syntax-ns#"
   xmlns:svg="http://www.w3.org/2000/svg"
   xmlns="http://www.w3.org/2000/svg"
   xmlns:sodipodi="http://sodipodi.sourceforge.net/DTD/sodipodi-0.dtd"
   xmlns:inkscape="http://www.inkscape.org/namespaces/inkscape"
   version="1.1"
   id="Capa_1"
   x="0px"
   y="0px"
   viewBox="0 0 525 612"
   xml:space="preserve"
   inkscape:version="0.91 r13725"
   sodipodi:docname="propietario-5.svg"
   width="525"
   height="612"><metadata
     id="metadata15"><rdf:RDF><cc:Work
         rdf:about=""><dc:format>image/svg+xml</dc:format><dc:type
           rdf:resource="http://purl.org/dc/dcmitype/StillImage" /><dc:title></dc:title></cc:Work></rdf:RDF></metadata><defs
     id="defs13" /><sodipodi:namedview
     pagecolor="#ffffff"
     bordercolor="#666666"
     borderopacity="1"
     objecttolerance="10"
     gridtolerance="10"
     guidetolerance="10"
     inkscape:pageopacity="0"
     inkscape:pageshadow="2"
     inkscape:window-width="1280"
     inkscape:window-height="1000"
     id="namedview11"
     showgrid="false"
     inkscape:zoom="0.38562092"
     inkscape:cx="396"
     inkscape:cy="306"
     inkscape:window-x="0"
     inkscape:window-y="24"
     inkscape:window-maximized="1"
     inkscape:current-layer="Capa_1" /><style
     type="text/css"
     id="style3">
	.st0{fill:#48CFAD;}
</style><g
     id="g5"><path
       class="st0"
       d="m 326.8,359.3 c 37,-20.9 62,-60.6 62,-106 0,-22.4 -2.8,-42.1 -14.3,-60.6 0.2,-0.6 0.5,-1.2 0.6,-1.9 5.5,-28.2 10.4,-49.3 14.5,-67.3 3.5,-15.4 6.5,-28.5 9,-41.6 1,-5.4 -1.7,-10.8 -6.6,-13.3 -31,-16.1 -79.6,-25.7 -129.8,-25.7 -44.8,0 -84.1,7.5 -110.8,21.1 -4.8,2.4 -7.5,7.7 -6.7,13.1 3.4,21.4 7.4,39.7 11.2,56.9 3.6,16.4 7,31.8 9.4,48.1 0.2,1.1 0.5,2.1 1,3.1 -13.6,20 -20.9,43.5 -20.9,68.2 0,45.4 25,85.1 61.9,106 -76.3,25.1 -123,100.2 -123,205.2 0,6.9 5.6,12.5 12.5,12.5 l 340.5,0 c 6.9,0 12.5,-5.6 12.5,-12.5 0,-105.2 -46.6,-180.2 -123,-205.3 z M 268.9,415 c -19.2,0 -35.2,-15.3 -39.2,-35.8 11.8,-2.7 24.3,-4.2 37.4,-4.2 14.4,0 28,1.7 40.8,4.9 -4.3,20.1 -20.2,35.1 -39,35.1 z M 262.2,67.8 c 42,0 82.3,7.1 110.1,19 -1.9,9.8 -4.3,19.8 -6.9,31.2 -3.4,14.7 -7.3,31.5 -11.6,52.5 -26.4,-11 -55.9,-16.6 -87.6,-16.6 -24.4,0 -49.8,3.3 -75.6,9.8 -1,-0.1 -2,0 -3,0.1 -2.1,-11.7 -4.7,-23.2 -7.3,-35.3 -3.1,-14.2 -6.4,-29.1 -9.4,-46.1 22.9,-9.3 55.5,-14.6 91.3,-14.6 z m -91.9,185.5 c 0,-24.4 9.1,-47.3 25.4,-65.2 54.1,-13.8 105.6,-12.1 147.7,5.1 15.1,15.5 20.6,31.6 20.6,60.1 0,53.4 -43.4,96.8 -96.8,96.8 -53.5,0 -96.9,-43.4 -96.9,-96.8 z m -60.8,298.8 c 3.4,-84.3 41.2,-144.8 101.6,-167.4 5.6,25.1 24.5,44.5 48.1,48.7 l 0,38 c 0,5.4 4.3,9.7 9.7,9.7 5.3,0 9.6,-4.3 9.6,-9.7 l 0,-38 c 23.2,-4.2 41.9,-23 47.8,-47.4 58.5,23.5 95,83.3 98.4,166.1 l -315.2,0 z"
       id="path7"
       inkscape:connector-curvature="0"
       style="fill:#48cfad" /><path
       class="st0"
       d="m 242.9,118.3 18.1,0 0,18.1 c 0,3.4 2.7,6.1 6.1,6.1 3.4,0 6.1,-2.7 6.1,-6.1 l 0,-18.1 18.1,0 c 3.4,0 6.1,-2.7 6.1,-6.1 0,-3.4 -2.7,-6.1 -6.1,-6.1 l -18.1,0 0,-18 c 0,-3.4 -2.7,-6.1 -6.1,-6.1 -3.4,0 -6.1,2.8 -6.1,6.1 l 0,18 -18.1,0 c -3.4,0 -6.1,2.7 -6.1,6.1 -0.1,3.3 2.7,6.1 6.1,6.1 z"
       id="path9"
       inkscape:connector-curvature="0"
       style="fill:#48cfad" /></g></svg>